<svg xmlns="http://www.w3.org/2000/svg" width="70" height="70" viewBox="0 0 70 70" version="1.1">
	<path d="M 47.691 2.643 C 59.297 6.754, 64.773 22.509, 60.426 39.284 C 57.484 50.638, 50.552 61.104, 43.575 64.726 C 41.753 65.672, 41.030 66.501, 41.801 66.762 C 44.114 67.542, 50.925 61.865, 55.006 55.754 C 64.120 42.105, 66.184 23.121, 59.893 10.791 C 57.376 5.856, 50.694 0.975, 46.600 1.079 C 43.579 1.156, 43.607 1.196, 47.691 2.643 M 24.591 7.250 C 23.790 8.488, 22.828 10.752, 22.451 12.282 C 21.789 14.976, 21.848 15.026, 24.370 13.877 C 25.801 13.225, 27.723 11.524, 28.641 10.096 C 30.286 7.536, 30.282 7.524, 28.326 9.250 C 27.235 10.213, 26.040 11, 25.671 11 C 24.539 11, 24.927 7.473, 26.200 6.200 C 26.860 5.540, 27.095 5, 26.723 5 C 26.351 5, 25.391 6.012, 24.591 7.250 M 37.252 9.104 C 34.915 10.261, 31.806 12.623, 30.342 14.354 C 25.137 20.507, 18.981 37, 21.889 37 C 22.500 37, 23 37.945, 23 39.100 C 23 41.033, 24.447 42.675, 32.759 50.178 C 34.570 51.812, 36.175 54.638, 36.878 57.428 C 37.511 59.943, 38.495 62, 39.064 62 C 41.003 62, 45.874 59.018, 47.330 56.940 C 48.605 55.119, 48.589 54.483, 47.196 51.690 C 46.324 49.943, 45.733 46.822, 45.882 44.756 C 46.089 41.888, 45.780 41, 44.576 41 C 43.303 41, 43 42.249, 43 47.500 C 43 51.167, 42.564 54, 42 54 C 41.444 54, 41 51.333, 41 48 C 41 44.667, 40.556 42, 40 42 C 39.450 42, 39 43.630, 39 45.622 C 39 48.729, 38.786 49.068, 37.500 48 C 36.675 47.315, 36 45.235, 36 43.378 C 36 41.520, 35.550 40, 35 40 C 34.450 40, 34 40.900, 34 42 C 34 43.100, 33.550 44, 33 44 C 32.417 44, 32 40.677, 32 36.031 C 32 29.359, 31.756 28.156, 30.500 28.638 C 28.818 29.284, 28.436 34.533, 30 35.500 C 30.550 35.840, 31 37.468, 31 39.118 C 31 41.024, 30.603 41.873, 29.913 41.446 C 29.315 41.077, 29.048 39.925, 29.319 38.887 C 29.661 37.582, 29.286 37, 28.105 37 C 26.818 37, 26.367 36.074, 26.279 33.250 C 26.149 29.077, 29.067 25, 32.183 25 C 33.723 25, 33.830 24.701, 32.851 23.132 C 31.194 20.480, 32.474 18, 35.500 18 C 38.481 18, 39.813 20.469, 38.213 23.030 C 37.317 24.466, 37.474 24.891, 39.055 25.304 C 40.757 25.749, 41 26.723, 41 33.106 C 41 41.807, 42.786 41.471, 43.702 32.598 C 44.131 28.442, 44.839 26.525, 46.334 25.478 C 47.459 24.691, 48.085 23.751, 47.725 23.392 C 47.365 23.032, 47.535 21.869, 48.102 20.809 C 49.718 17.790, 54.412 18.740, 54.808 22.165 C 54.978 23.631, 55.801 25.093, 56.637 25.414 C 57.883 25.892, 58.035 25.410, 57.478 22.749 C 56.151 16.417, 53.167 11.072, 49.818 9.030 C 45.595 6.456, 42.567 6.474, 37.252 9.104 M 15.539 14.581 C 13.252 18.071, 12.528 23.250, 13.955 25.916 L 15.128 28.107 17.132 25.559 C 18.234 24.158, 19.541 21.546, 20.034 19.756 L 20.932 16.500 18.926 18.910 C 17.414 20.726, 16.637 21.037, 15.770 20.170 C 14.903 19.303, 15.032 18.155, 16.294 15.510 C 18.266 11.375, 17.919 10.948, 15.539 14.581 M 9.513 27.314 C 8.681 29.306, 8 31.877, 8 33.027 C 8 34.177, 7.587 34.863, 7.081 34.550 C 5.712 33.704, 4.781 39.286, 5.560 43.666 C 5.935 45.775, 7.611 50.108, 9.284 53.296 C 14.236 62.728, 22.407 68.010, 33.242 68.785 C 40.082 69.275, 41.522 68.508, 38.490 65.992 C 37.659 65.302, 36.252 62.236, 35.363 59.177 C 34.409 55.895, 32.671 52.669, 31.123 51.308 C 29.680 50.039, 26.700 47.329, 24.500 45.286 C 22.300 43.243, 20.163 41.668, 19.750 41.786 C 19.337 41.904, 18.993 40.988, 18.985 39.750 C 18.959 35.868, 16.381 29.575, 15.440 31.097 C 14.983 31.837, 14.704 33.693, 14.820 35.221 C 15.112 39.055, 13.194 38.708, 11.485 34.618 C 10.457 32.158, 10.330 30.337, 11.019 27.934 C 12.335 23.344, 11.343 22.935, 9.513 27.314 M 46.158 35 C 46.158 36.375, 46.385 36.938, 46.662 36.250 C 46.940 35.563, 46.940 34.438, 46.662 33.750 C 46.385 33.063, 46.158 33.625, 46.158 35 M 8.023 38.500 C 8.048 42.111, 11.329 49.653, 14.209 52.721 C 16.651 55.322, 22.804 57.599, 24.036 56.358 C 25.452 54.932, 19.817 47.570, 15.864 45.681 C 13.374 44.492, 11.487 42.542, 10.084 39.708 C 8.044 35.586, 8.002 35.562, 8.023 38.500" stroke="none" fill="black" fill-rule="evenodd"/>
</svg>